<?xml version="1.0" encoding="UTF-8"?>
<svg width="17px" height="12px" viewBox="0 0 17 12" version="1.1" xmlns="http://www.w3.org/2000/svg" xmlns:xlink="http://www.w3.org/1999/xlink">
    <!-- Generator: Sketch 60.1 (88133) - https://sketch.com -->
    <title>Group</title>
    <desc>Created with Sketch.</desc>
    <g id="Symbols" stroke="none" stroke-width="1" fill="none" fill-rule="evenodd">
        <g id="MAIL" transform="translate(0.000000, -2.000000)" fill="#003B5C">
            <g id="Group" transform="translate(0.000000, 2.000000)">
                <path d="M-9.14823772e-14,11.8800003 L16.7200004,11.8800003 L16.7200004,-1.77635684e-15 L-9.14823772e-14,-1.77635684e-15 L-9.14823772e-14,11.8800003 Z M0.880000019,11.0000002 L15.8400003,11.0000002 L15.8400003,0.880440019 L0.880000019,0.880440019 L0.880000019,11.0000002 Z" id="Fill-1"></path>
                <path d="M-9.14823772e-14,4.4408921e-16 L-9.14823772e-14,2.64000006 L7.94156017,7.10600015 L16.7200004,2.64000006 L16.7200004,4.4408921e-16 L-9.14823772e-14,4.4408921e-16 Z M0.880000019,2.12520005 L0.880000019,0.880440019 L15.8400003,0.880440019 L15.8400003,2.10056005 L7.96268017,6.10808013 L0.880000019,2.12520005 Z" id="Fill-2"></path>
            </g>
        </g>
    </g>
</svg>