<?xml version="1.0" encoding="UTF-8"?>
<svg width="12px" height="22px" viewBox="0 0 12 22" version="1.1" xmlns="http://www.w3.org/2000/svg" xmlns:xlink="http://www.w3.org/1999/xlink">
    <!-- Generator: Sketch 60.1 (88133) - https://sketch.com -->
    <title>Fill 1</title>
    <desc>Created with Sketch.</desc>
    <g id="Symbols" stroke="none" stroke-width="1" fill="none" fill-rule="evenodd">
        <g id="FOOTER" transform="translate(-1207.000000, -154.000000)" fill="#FFFFFF">
            <g id="FOLLOW" transform="translate(1207.000000, 115.000000)">
                <path d="M3.75067947,59.931987 L6.658815,59.931987 L6.658815,49.4654595 L9.49737271,49.4654595 L10.3942743,47.2632167 L6.658815,47.2632167 L6.658815,44.1125783 C6.658815,43.0968979 7.49972821,42.2702558 8.53361116,42.2702558 L9.322341,42.2702558 L9.322341,40.068013 L7.20239174,40.068013 C5.29932959,40.068013 3.75067947,41.5888635 3.75067947,43.4584203 L3.75067947,47.2632167 L1.08715347,47.2632167 L1.08715347,49.4654595 L3.75067947,49.4654595 L3.75067947,59.931987 Z M7.74596847,61 L2.663526,61 L2.663526,50.5334725 L0,50.5334725 L0,46.1952037 L2.663526,46.1952037 L2.663526,43.4584203 C2.663526,41.0003884 4.69976445,39 7.20239174,39 L10.4094945,39 L10.4094945,43.3382688 L8.53361116,43.3382688 C8.09929335,43.3382688 7.74596847,43.6853731 7.74596847,44.1125783 L7.74596847,46.1952037 L12,46.1952037 L10.2339192,50.5334725 L7.74596847,50.5334725 L7.74596847,61 Z" id="Fill-1"></path>
            </g>
        </g>
    </g>
</svg>