<?xml version="1.0" encoding="UTF-8"?>
<svg width="9px" height="17px" viewBox="0 0 9 17" version="1.1" xmlns="http://www.w3.org/2000/svg" xmlns:xlink="http://www.w3.org/1999/xlink">
    <!-- Generator: Sketch 60.1 (88133) - https://sketch.com -->
    <title>FACEBOOK</title>
    <desc>Created with Sketch.</desc>
    <g id="Symbols" stroke="none" stroke-width="1" fill="none" fill-rule="evenodd">
        <g id="MENU-DESKTOP-MINI-ARTICLE" transform="translate(-1185.000000, -27.000000)" fill="#003B5C">
            <g id="FACEBOOK" transform="translate(1181.000000, 27.000000)">
                <path d="M6.8130096,16.1747172 L8.99411125,16.1747172 L8.99411125,8.08694597 L11.1230295,8.08694597 L11.7957057,6.38521287 L8.99411125,6.38521287 L8.99411125,3.95062867 C8.99411125,3.16578475 9.62479616,2.52701587 10.4002084,2.52701587 L10.9917558,2.52701587 L10.9917558,0.825282781 L9.4017938,0.825282781 C7.97449719,0.825282781 6.8130096,2.00048546 6.8130096,3.44514297 L6.8130096,6.38521287 L4.8153651,6.38521287 L4.8153651,8.08694597 L6.8130096,8.08694597 L6.8130096,16.1747172 Z M9.80947635,17 L5.9976445,17 L5.9976445,8.91222875 L4,8.91222875 L4,5.55993009 L5.9976445,5.55993009 L5.9976445,3.44514297 C5.9976445,1.54575465 7.52482334,0 9.4017938,0 L11.8071209,0 L11.8071209,3.35229866 L10.4002084,3.35229866 C10.07447,3.35229866 9.80947635,3.62051556 9.80947635,3.95062867 L9.80947635,5.55993009 L13,5.55993009 L11.6754394,8.91222875 L9.80947635,8.91222875 L9.80947635,17 Z" id="Fill-1"></path>
            </g>
        </g>
    </g>
</svg>