<?xml version="1.0" encoding="UTF-8"?>
<svg width="18px" height="18px" viewBox="0 0 18 18" version="1.1" xmlns="http://www.w3.org/2000/svg" xmlns:xlink="http://www.w3.org/1999/xlink">
    <!-- Generator: Sketch 60.1 (88133) - https://sketch.com -->
    <title>Group 3</title>
    <desc>Created with Sketch.</desc>
    <g id="Symbols" stroke="none" stroke-width="1" fill="none" fill-rule="evenodd">
        <g id="FOOTER" transform="translate(-1303.000000, -156.000000)" fill="#FFFFFF">
            <g id="FOLLOW" transform="translate(1207.000000, 115.000000)">
                <g id="Group-3" transform="translate(96.000000, 41.000000)">
                    <path d="M8.648016,4.38906 C6.296056,4.38906 4.388696,6.2959 4.388696,8.64786 C4.388696,11.00086 6.296056,12.9077 8.648016,12.9077 C11.000496,12.9077 12.907336,11.00086 12.907336,8.64786 C12.907336,6.2959 11.000496,4.38906 8.648016,4.38906 M8.648016,5.42906 C10.423296,5.42906 11.867336,6.8731 11.867336,8.64786 C11.867336,10.42314 10.423296,11.8677 8.648016,11.8677 C6.872736,11.8677 5.428696,10.42314 5.428696,8.64786 C5.428696,6.8731 6.872736,5.42906 8.648016,5.42906" id="Fill-4"></path>
                    <path d="M13.469404,2.396368 C12.679524,2.396368 12.039404,3.036488 12.039404,3.826888 C12.039404,4.616768 12.679524,5.256888 13.469404,5.256888 C14.259284,5.256888 14.899404,4.616768 14.899404,3.826888 C14.899404,3.036488 14.259284,2.396368 13.469404,2.396368 M13.469404,3.436368 C13.684684,3.436368 13.859404,3.611608 13.859404,3.826888 C13.859404,4.042168 13.684684,4.216888 13.469404,4.216888 C13.254124,4.216888 13.079404,4.042168 13.079404,3.826888 C13.079404,3.611608 13.254124,3.436368 13.469404,3.436368" id="Fill-6"></path>
                    <path d="M12.76912,0 L4.5266,0 C2.03684,0 0,2.03736 0,4.52712 L0,12.76964 C0,15.2594 2.03684,17.29624 4.5266,17.29624 L12.76912,17.29624 C15.25888,17.29624 17.29624,15.2594 17.29624,12.76964 L17.29624,4.52712 C17.29624,2.03736 15.25888,0 12.76912,0 M12.76912,1.04 C14.69208,1.04 16.25624,2.60468 16.25624,4.52712 L16.25624,12.76964 C16.25624,14.69208 14.69208,16.25624 12.76912,16.25624 L4.5266,16.25624 C2.60416,16.25624 1.04,14.69208 1.04,12.76964 L1.04,4.52712 C1.04,2.60468 2.60416,1.04 4.5266,1.04 L12.76912,1.04" id="Fill-1"></path>
                </g>
            </g>
        </g>
    </g>
</svg>