<?xml version="1.0" encoding="UTF-8"?>
<svg width="17px" height="17px" viewBox="0 0 17 17" version="1.1" xmlns="http://www.w3.org/2000/svg" xmlns:xlink="http://www.w3.org/1999/xlink">
    <!-- Generator: Sketch 60.1 (88133) - https://sketch.com -->
    <title>WHATSAPP</title>
    <desc>Created with Sketch.</desc>
    <g id="Symbols" stroke="none" stroke-width="1" fill="none" fill-rule="evenodd">
        <g id="REDACTEURS-BOTTOM" transform="translate(-550.000000, -30.000000)" fill="#003B5C">
            <g id="REDACTEUR">
                <g id="WHATSAPP" transform="translate(550.000000, 30.000000)">
                    <g id="Group">
                        <path d="M8.64288047,0.960000052 C4.69536026,0.960000052 1.48416008,4.17120023 1.48416008,8.11872044 C1.48416008,9.40560051 1.8302401,10.6680006 2.48544014,11.7700806 L2.59776014,11.9582407 L1.47216008,15.3355208 L5.14704028,14.3688008 L5.31264029,14.4556808 C6.33312035,14.9932808 7.48464041,15.2774408 8.64288047,15.2774408 C12.5904007,15.2774408 15.8020809,12.0662407 15.8020809,8.11872044 C15.8020809,4.17120023 12.5904007,0.960000052 8.64288047,0.960000052 L8.64288047,0.960000052 Z M2.06945572e-13,16.7155209 L1.54944008,12.0676807 C0.877920048,10.8638406 0.524160029,9.50352052 0.524160029,8.11872044 C0.524160029,3.6422402 4.16592023,8.8817842e-16 8.64288047,8.8817842e-16 C13.1198407,8.8817842e-16 16.7620809,3.6422402 16.7620809,8.11872044 C16.7620809,12.5952007 13.1198407,16.2374409 8.64288047,16.2374409 C7.3929604,16.2374409 6.14928034,15.9456009 5.03328028,15.3912008 L2.06945572e-13,16.7155209 Z" id="Fill-1"></path>
                        <path d="M5.99256033,4.01438422 C5.94264032,4.01438422 5.89320032,4.03358422 5.85576032,4.07102422 L5.4208803,4.50542425 C5.05512028,4.87118427 3.94248022,5.98430433 6.10008033,8.14190444 L8.62056047,10.6623846 C10.7781606,12.8195047 11.8903206,11.7068646 12.2560807,11.3411046 L12.6909607,10.9062246 C12.7509607,10.8457446 12.7648807,10.7540646 12.7250407,10.6787046 L12.7245607,10.6782246 C12.5349607,10.3196646 11.8000806,9.79550454 11.3810406,9.54926452 C11.3354406,9.52382452 11.2941606,9.51086452 11.2672806,9.50606452 L11.2384806,9.54638452 C10.8050406,10.0662245 10.6922406,10.1430246 10.6495206,10.1713446 C9.98952055,10.6191846 9.31320051,10.5529446 8.74536048,9.98462455 L6.77688037,8.01614444 C6.20904034,7.44878441 6.14280034,6.77246437 6.59016036,6.11150433 C6.61944036,6.06830433 6.69576037,5.95646433 7.21464039,5.5235043 L7.2549604,5.4913443 C7.2496804,5.4644643 7.2367204,5.4236643 7.20936039,5.37566429 C6.96600038,4.96190427 6.44232035,4.22654423 6.08376033,4.03694422 C6.05496033,4.02158422 6.02328033,4.01438422 5.99256033,4.01438422 M10.9461606,12.9102247 C10.1272806,12.9102247 9.1197605,12.5190247 7.94184043,11.3411046 L5.4213603,8.82062448 C2.95368016,6.35246435 3.93672022,4.63262425 4.74216026,3.82670421 L5.17704028,3.39230419 C5.5375203,3.03230417 6.08280033,2.95070416 6.53256036,3.18830417 C7.2472804,3.56654419 7.96152043,4.76030426 8.04072044,4.89518427 C8.20920045,5.19086428 8.25864045,5.5009443 8.18328045,5.77262432 C8.12376044,5.98718433 7.99272044,6.16334434 7.80216043,6.28382434 C7.62456042,6.43262435 7.41576041,6.61742436 7.3692004,6.67166436 C7.19400039,6.93182438 7.21080039,7.09262439 7.45560041,7.3374244 L9.42408051,9.30590451 C9.66936053,9.55070452 9.82968054,9.56846452 10.1114406,9.37646451 C10.1460006,9.34430451 10.3293606,9.1369445 10.4776806,8.95982449 C10.5981606,8.76926448 10.7733606,8.63822447 10.9879206,8.57870447 C11.2605606,8.50334446 11.5701606,8.55230447 11.8615206,8.71838448 C12.0016807,8.80046448 13.1944807,9.51374452 13.5727207,10.2284646 C13.8117608,10.6782246 13.7301608,11.2235046 13.3701607,11.5844646 L12.9348007,12.0198247 C12.5138407,12.4407847 11.8428006,12.9102247 10.9461606,12.9102247" id="Fill-4"></path>
                    </g>
                </g>
            </g>
        </g>
    </g>
</svg>