<?xml version="1.0" encoding="UTF-8"?>
<svg width="18px" height="13px" viewBox="0 0 18 13" version="1.1" xmlns="http://www.w3.org/2000/svg" xmlns:xlink="http://www.w3.org/1999/xlink">
    <!-- Generator: Sketch 60.1 (88133) - https://sketch.com -->
    <title>TWITTER</title>
    <desc>Created with Sketch.</desc>
    <g id="Symbols" stroke="none" stroke-width="1" fill="none" fill-rule="evenodd">
        <g id="MENU-DESKTOP-MINI-ARTICLE" transform="translate(-1212.000000, -29.000000)" fill="#003B5C">
            <g id="TWITTER" transform="translate(1212.000000, 27.000000)">
                <path d="M3.309,13.54688 C4.2486,13.91808 5.2574,14.11048 6.2882,14.11048 C11.8822,14.11048 14.3982,9.36888 14.3982,6.00208 C14.3982,5.87648 14.3938,5.75528 14.3878,5.63568 L14.377,5.41648 L14.5558,5.28928 C14.7422,5.15688 14.921,5.01168 15.0906,4.85488 C14.9334,4.88608 14.7742,4.91208 14.6134,4.93248 L12.715,5.17328 L14.3578,4.19208 C14.5522,4.07608 14.7286,3.93688 14.8838,3.77848 C14.617,3.86928 14.3422,3.94248 14.0606,3.99888 L13.8426,4.04248 L13.6906,3.88048 C13.2014,3.35928 12.5118,3.06048 11.7982,3.06048 C10.3714,3.06048 9.2102,4.22248 9.2102,5.65128 C9.2102,5.87448 9.2298,6.06888 9.2694,6.24408 L9.3862,6.75768 L8.8598,6.73248 C6.5654,6.62088 4.4002,5.61088 2.827,3.93848 C2.7474,4.18968 2.7074,4.45008 2.7074,4.71688 C2.7074,5.58328 3.1374,6.38768 3.8578,6.86928 L4.9922,7.62688 L3.6282,7.60168 C3.3366,7.59608 3.0438,7.54928 2.759,7.46408 C2.9942,8.43928 3.7642,9.20848 4.7602,9.41248 L6.4034,9.74888 L4.7854,10.19008 C4.5354,10.25808 4.2646,10.29568 3.9786,10.30208 C4.4386,11.03928 5.2434,11.51528 6.1326,11.53448 L7.2538,11.55848 L6.3706,12.24968 C5.4838,12.94288 4.421,13.38968 3.309,13.54688 M6.2882,14.91048 C4.5718,14.91048 2.9106,14.42448 1.4842,13.50528 L0.0002,12.54808 L1.7518,12.77208 C1.9534,12.79768 2.1646,12.80968 2.417,12.80968 C3.3434,12.80968 4.2586,12.57728 5.0698,12.14448 C4.0854,11.79928 3.2878,11.00848 2.9502,9.97608 L2.7318,9.30888 L2.9826,9.36488 C2.303,8.73688 1.8846,7.83928 1.8846,6.86648 L1.8846,6.18968 L2.3722,6.43128 C2.0718,5.91928 1.9074,5.32968 1.9074,4.71688 C1.9074,4.11408 2.063,3.53848 2.3702,3.00568 L2.6602,2.50248 L3.0266,2.95288 C4.3758,4.60968 6.319,5.66488 8.4174,5.89528 C8.4126,5.81648 8.4102,5.73528 8.4102,5.65128 C8.4102,3.78168 9.9302,2.26048 11.7982,2.26048 C12.6542,2.26048 13.4842,2.58928 14.1094,3.16968 C14.6682,3.03688 15.1938,2.82528 15.6734,2.53888 L16.5782,2.00008 L16.2594,3.00408 C16.1706,3.28408 16.0458,3.54968 15.889,3.79408 C15.9686,3.76328 16.0474,3.73128 16.125,3.69688 L17.3846,3.14448 L16.6178,4.28648 C16.217,4.88288 15.7394,5.39488 15.1954,5.81168 C15.1974,5.87408 15.1982,5.93768 15.1982,6.00208 C15.1982,10.38088 11.8654,14.91048 6.2882,14.91048" id="Fill-1"></path>
            </g>
        </g>
    </g>
</svg>