<?xml version="1.0" encoding="UTF-8"?>
<svg width="23px" height="17px" viewBox="0 0 23 17" version="1.1" xmlns="http://www.w3.org/2000/svg" xmlns:xlink="http://www.w3.org/1999/xlink">
    <!-- Generator: Sketch 60.1 (88133) - https://sketch.com -->
    <title>Fill 1</title>
    <desc>Created with Sketch.</desc>
    <g id="Symbols" stroke="none" stroke-width="1" fill="none" fill-rule="evenodd">
        <g id="FOOTER" transform="translate(-1250.000000, -157.000000)" fill="#FFFFFF">
            <g id="FOLLOW" transform="translate(1207.000000, 115.000000)">
                <path d="M47.3776259,57.2044553 C48.6207404,57.6932396 49.9554083,57.9465857 51.3191827,57.9465857 C58.7201859,57.9465857 62.0489174,51.7029991 62.0489174,47.269705 C62.0489174,47.104319 62.0430961,46.9447267 62.035158,46.7872413 L62.0208693,46.4986058 L62.2574262,46.3311129 C62.5040381,46.1567728 62.740595,45.9655781 62.9649801,45.7591089 C62.7570005,45.8001921 62.5463749,45.8344281 62.3336325,45.8612901 L59.8220013,46.1783678 L61.9954672,44.8863552 C62.2526633,44.7336101 62.486045,44.550316 62.6913785,44.34174 C62.3383953,44.4613025 61.974828,44.5576899 61.6022641,44.6319556 L61.3138446,44.6893667 L61.1127448,44.4760503 C60.4655208,43.7897509 59.5531626,43.3963007 58.6090518,43.3963007 C56.7213594,43.3963007 55.1850625,44.9263849 55.1850625,46.8077829 C55.1850625,47.1016855 55.2109938,47.3576651 55.2633856,47.5883629 L55.4179149,48.2646549 L54.7214744,48.2314723 C51.6859253,48.084521 48.8213111,46.7545855 46.7399278,44.5524229 C46.6346149,44.8831949 46.5816939,45.2260813 46.5816939,45.577395 C46.5816939,46.7182427 47.1505948,47.7774507 48.1037022,48.4116061 L49.604542,49.4091895 L47.7999356,49.3760069 C47.4141414,49.368633 47.0267596,49.3070083 46.649962,49.1948197 C46.9611376,50.4789317 47.979867,51.4917896 49.2976001,51.7604102 L51.4715952,52.2033709 L49.3309404,52.7843289 C49.0001841,52.8738691 48.6419088,52.9233796 48.2635236,52.9318069 C48.8721152,53.9025282 49.9368859,54.5293097 51.11332,54.5545916 L52.5966959,54.5861941 L51.4282,55.496344 C50.2549412,56.4091275 48.84883,56.9974594 47.3776259,57.2044553 M51.3191827,59 C49.0483422,59 46.8505327,58.3600508 44.9633695,57.1496778 L43,55.8892676 L45.317411,56.1842236 C45.5841329,56.2179328 45.8635558,56.233734 46.1974874,56.233734 C47.423138,56.233734 48.6339707,55.9277172 49.7072088,55.3578201 C48.4048227,54.9032718 47.3495778,53.8619717 46.9029245,52.5025406 L46.6139757,51.6239931 L46.9457905,51.6977321 C46.0466625,50.8708018 45.4931088,49.688871 45.4931088,48.4079192 L45.4931088,47.5167307 L46.1382159,47.8348618 C45.7407791,47.1606767 45.5232737,46.3843103 45.5232737,45.577395 C45.5232737,44.7836473 45.7291365,44.0257157 46.1355698,43.3241418 L46.5192471,42.6615442 L47.0040036,43.2546164 C48.7890292,45.4362375 51.3599319,46.8256909 54.1361681,47.1290742 C54.1298175,47.0253129 54.1266423,46.9183914 54.1266423,46.8077829 C54.1266423,44.3459536 56.1376406,42.3428864 58.6090518,42.3428864 C59.7415614,42.3428864 60.8396723,42.7758396 61.6668277,43.5400917 C62.4061342,43.3652249 63.1015163,43.0865969 63.7360392,42.7094745 L64.9331124,42 L64.511332,43.3220349 C64.3938474,43.69073 64.2287338,44.0404635 64.0212834,44.3622816 C64.1265963,44.3217251 64.2308506,44.2795885 64.3335174,44.2342917 L66,43.5069092 L64.9855042,45.0106581 C64.4552357,45.7959784 63.8233589,46.4701636 63.1036331,47.0189924 C63.1062792,47.1011588 63.1073376,47.1849052 63.1073376,47.269705 C63.1073376,53.0355682 58.6979591,59 51.3191827,59" id="Fill-1"></path>
            </g>
        </g>
    </g>
</svg>